<svg width="48" height="48" viewBox="0 0 48 48" fill="none" xmlns="http://www.w3.org/2000/svg">
<rect width="48" height="48" rx="16" fill="white"/>
<path fill-rule="evenodd" clip-rule="evenodd" d="M20.8278 8.44238C20.7325 7.99444 20.1704 7.84568 19.8675 8.18825L13.2245 15.7037C11.8356 17.3918 11 19.5641 11 21.9343C11 27.3091 15.2971 31.6663 20.5979 31.6663C21.2164 31.6663 21.8213 31.607 22.4073 31.4936C22.6876 31.4394 22.9715 31.5902 23.068 31.86L25.6101 38.9659C25.7759 39.4294 26.4145 39.4664 26.6323 39.0251L28.9511 34.3265C29.1201 33.984 29.5739 33.9092 29.8431 34.1795L35.4764 39.8364C35.6937 40.0545 36.046 40.0545 36.2633 39.8364L37.837 38.2561C38.0543 38.0379 38.0543 37.6841 37.837 37.4659L32.2036 31.809C31.9345 31.5387 32.009 31.083 32.35 30.9133L37.0293 28.5847C37.4688 28.366 37.432 27.7247 36.9704 27.5582L30.2339 25.1281C29.9515 25.0262 29.8021 24.7182 29.878 24.4267C30.0853 23.6312 30.1957 22.7958 30.1957 21.9343C30.1958 19.6059 29.0164 17.5575 28.1988 16.1377C28.0949 15.9572 27.9968 15.7868 27.9077 15.6273C27.4435 14.7961 26.9293 14.0788 26.5844 13.6287C26.3783 13.36 25.9853 13.3568 25.7628 13.6119L23.4108 16.3078C23.1091 16.6536 22.5438 16.506 22.4482 16.0564L20.8278 8.44238ZM29.291 25.5393C29.4103 25.2556 29.2585 24.9357 28.9699 24.8316L20.4911 21.7729C20.0483 21.6132 19.6203 22.043 19.7793 22.4876L22.7044 30.6639C22.8018 30.9363 23.091 31.0906 23.3655 31.0022C26.0369 30.1424 28.2016 28.1292 29.291 25.5393Z" fill="black"/>
</svg>
