<svg width="167" height="42" viewBox="0 0 167 42" fill="none" xmlns="http://www.w3.org/2000/svg">
<path d="M147.17 23.0323C147.17 23.5434 147.148 24.0212 147.103 24.4656C147.067 24.8241 146.756 25.0856 146.394 25.0856H131.71C131.602 25.0856 131.518 25.1766 131.528 25.2828C131.684 26.8048 132.28 28.0346 133.316 28.9722C134.397 29.95 135.723 30.4389 137.296 30.4389C139.389 30.4389 140.913 29.6316 141.868 28.017C142.01 27.7765 142.263 27.6156 142.544 27.6156H145.599C146.101 27.6156 146.456 28.1046 146.249 28.5597C145.597 29.9975 144.602 31.2105 143.265 32.1988C141.668 33.3721 139.678 33.9588 137.296 33.9588C135.355 33.9588 133.611 33.531 132.063 32.6755C130.541 31.7955 129.337 30.5733 128.453 29.0089C127.593 27.42 127.163 25.5867 127.163 23.509C127.163 21.4313 127.581 19.6102 128.416 18.0458C129.276 16.4569 130.467 15.2347 131.99 14.3792C133.537 13.5236 135.306 13.0959 137.296 13.0959C139.212 13.0959 140.919 13.5114 142.417 14.3425C143.915 15.1736 145.082 16.3469 145.917 17.8624C146.753 19.3535 147.17 21.0768 147.17 23.0323ZM142.037 21.7124C142.448 21.7124 142.786 21.3754 142.729 20.9697C142.563 19.7704 142.029 18.7836 141.127 18.0091C140.047 17.0802 138.708 16.6158 137.111 16.6158C135.662 16.6158 134.422 17.0802 133.39 18.0091C132.545 18.7498 131.98 19.7118 131.695 20.8951C131.592 21.3241 131.939 21.7124 132.382 21.7124H142.037Z" fill="#111111"/>
<path d="M104.402 23.4357C104.402 21.4068 104.82 19.6102 105.655 18.0458C106.515 16.4814 107.669 15.2714 109.119 14.4158C110.592 13.5359 112.226 13.0959 114.019 13.0959C115.345 13.0959 116.647 13.3892 117.925 13.9759C119.04 14.4575 119.957 15.0825 120.675 15.8511C120.794 15.9782 121.02 15.8975 121.02 15.7239V7.22933C121.02 6.82433 121.35 6.49601 121.757 6.49601H124.52C124.927 6.49601 125.257 6.82433 125.257 7.22933V32.8955C125.257 33.3005 124.927 33.6288 124.52 33.6288H121.757C121.35 33.6288 121.02 33.3005 121.02 32.8955V31.1671C121.02 30.9879 120.78 30.9095 120.664 31.047C120.015 31.82 119.175 32.4728 118.146 33.0055C116.942 33.641 115.554 33.9588 113.982 33.9588C112.214 33.9588 110.592 33.5188 109.119 32.6388C107.669 31.7344 106.515 30.4877 105.655 28.8989C104.82 27.2856 104.402 25.4645 104.402 23.4357ZM121.02 23.509C121.02 22.1157 120.725 20.9057 120.135 19.8791C119.57 18.8524 118.821 18.0702 117.888 17.5325C116.954 16.9947 115.947 16.7258 114.866 16.7258C113.786 16.7258 112.779 16.9947 111.845 17.5325C110.912 18.0458 110.15 18.8158 109.561 19.8424C108.996 20.8446 108.713 22.0424 108.713 23.4357C108.713 24.829 108.996 26.0512 109.561 27.1023C110.15 28.1533 110.912 28.96 111.845 29.5222C112.803 30.06 113.81 30.3289 114.866 30.3289C115.947 30.3289 116.954 30.06 117.888 29.5222C118.821 28.9844 119.57 28.2022 120.135 27.1756C120.725 26.1245 121.02 24.9023 121.02 23.509Z" fill="#111111"/>
<path d="M100.435 10.7493C99.6737 10.7493 99.035 10.4926 98.5192 9.97927C98.0034 9.46595 97.7454 8.83041 97.7454 8.07264C97.7454 7.31488 98.0034 6.67934 98.5192 6.16602C99.035 5.65269 99.6737 5.39603 100.435 5.39603C101.172 5.39603 101.798 5.65269 102.314 6.16602C102.83 6.67934 103.088 7.31488 103.088 8.07264C103.088 8.83041 102.83 9.46595 102.314 9.97927C101.798 10.4926 101.172 10.7493 100.435 10.7493ZM101.762 13.4259C102.169 13.4259 102.498 13.7542 102.498 14.1592V32.8955C102.498 33.3005 102.169 33.6288 101.762 33.6288H99.035C98.628 33.6288 98.2981 33.3005 98.2981 32.8955V14.1592C98.2981 13.7542 98.628 13.4259 99.035 13.4259H101.762Z" fill="#111111"/>
<path d="M94.2299 13.4259C94.6369 13.4259 94.9668 13.7542 94.9668 14.1592V32.8955C94.9668 33.3005 94.6369 33.6288 94.2299 33.6288H91.5033C91.0963 33.6288 90.7664 33.3005 90.7664 32.8955V31.7712C90.7664 31.5975 90.5405 31.5165 90.421 31.643C89.8097 32.2898 89.0528 32.8173 88.1504 33.2255C87.0941 33.6899 85.9642 33.9221 84.7606 33.9221C83.164 33.9221 81.727 33.5921 80.4497 32.9321C79.1969 32.2721 78.2021 31.2944 77.4652 29.9989C76.7529 28.7033 76.3967 27.1389 76.3967 25.3056V14.1592C76.3967 13.7542 76.7266 13.4259 77.1336 13.4259H79.8233C80.2303 13.4259 80.5602 13.7542 80.5602 14.1592V24.6823C80.5602 26.4912 81.0146 27.8845 81.9235 28.8622C82.8324 29.8155 84.0728 30.2922 85.6449 30.2922C87.217 30.2922 88.4574 29.8155 89.3663 28.8622C90.2997 27.8845 90.7664 26.4912 90.7664 24.6823V14.1592C90.7664 13.7542 91.0963 13.4259 91.5033 13.4259H94.2299Z" fill="#111111"/>
<path d="M69.2749 15.4792C68.9999 15.4792 68.7502 15.3251 68.61 15.0896C67.9679 14.0115 67.1192 13.1881 66.0638 12.6192C64.8848 11.9592 63.5215 11.6292 61.974 11.6292C60.2791 11.6292 58.7684 12.0081 57.442 12.7659C56.1156 13.5236 55.0716 14.5992 54.3102 15.9925C53.5732 17.3858 53.2048 18.9991 53.2048 20.8324C53.2048 22.6657 53.5732 24.2912 54.3102 25.709C55.0716 27.1023 56.1156 28.1778 57.442 28.9356C58.7684 29.6933 60.2791 30.0722 61.974 30.0722C64.2584 30.0722 66.113 29.4367 67.5377 28.1656C68.7752 27.0615 69.5957 25.6162 69.9992 23.8298C70.0977 23.3935 69.7507 22.9957 69.3013 22.9957H61.2739C60.867 22.9957 60.537 22.6674 60.537 22.2624V20.3924C60.537 19.9874 60.867 19.6591 61.2739 19.6591H73.9119C74.3189 19.6591 74.6488 19.9874 74.6488 20.3924V22.9223C74.3786 24.9023 73.6663 26.7234 72.5118 28.3856C71.3819 30.0478 69.8958 31.3799 68.0535 32.3821C66.2358 33.3599 64.2093 33.8488 61.974 33.8488C59.5668 33.8488 57.3683 33.2988 55.3787 32.1988C53.389 31.0744 51.8047 29.5222 50.6256 27.5422C49.4711 25.5623 48.8939 23.3257 48.8939 20.8324C48.8939 18.3391 49.4711 16.1025 50.6256 14.1225C51.8047 12.1426 53.389 10.6026 55.3787 9.50261C57.3929 8.37819 59.5913 7.81598 61.974 7.81598C64.7006 7.81598 67.1201 8.48819 69.2326 9.83261C71.0736 10.9698 72.4772 12.5243 73.4432 14.496C73.6704 14.9599 73.3153 15.4792 72.7967 15.4792H69.2749Z" fill="#111111"/>
<path fill-rule="evenodd" clip-rule="evenodd" d="M13.0162 0.580619C12.8899 -0.00730193 12.1455 -0.202551 11.7444 0.247076L2.94616 10.1112C1.10675 12.3267 -1.24233e-07 15.1778 0 18.2887C8.7472e-07 25.3432 5.69121 31.062 12.7117 31.062C13.5309 31.062 14.332 30.9841 15.1081 30.8354C15.4793 30.7642 15.8553 30.9622 15.9832 31.3163L19.35 40.6427C19.5696 41.2511 20.4154 41.2996 20.7038 40.7204L23.7749 34.5535C23.9987 34.104 24.5998 34.0059 24.9563 34.3606L32.4172 41.7852C32.705 42.0716 33.1716 42.0716 33.4594 41.7852L35.5437 39.7111C35.8315 39.4247 35.8315 38.9604 35.5437 38.674L28.0826 31.2493C27.7262 30.8946 27.8248 30.2964 28.2765 30.0737L34.4739 27.0174C35.0559 26.7303 35.0072 25.8887 34.3958 25.6702L25.4738 22.4806C25.0998 22.3469 24.902 21.9427 25.0026 21.5601C25.2771 20.516 25.4233 19.4195 25.4233 18.2887C25.4234 15.2328 23.8613 12.5443 22.7786 10.6807C22.6409 10.4438 22.511 10.2202 22.393 10.0109C21.7782 8.9199 21.0972 7.97842 20.6403 7.38772C20.3675 7.03495 19.847 7.03074 19.5522 7.36559L16.4372 10.904C16.0376 11.3578 15.289 11.1641 15.1622 10.574L13.0162 0.580619ZM24.225 23.0204C24.3831 22.648 24.1821 22.2281 23.7998 22.0914L12.5702 18.077C11.9838 17.8673 11.4169 18.4315 11.6276 19.015L15.5016 29.7464C15.6307 30.1039 16.0137 30.3064 16.3772 30.1904C19.9152 29.0619 22.7823 26.4195 24.225 23.0204Z" fill="#111111"/>
<path d="M156.407 38.3952C156.704 38.3952 156.973 38.2173 157.087 37.9443L166.942 14.4416C167.145 13.9585 166.788 13.4258 166.262 13.4258H163.527C163.222 13.4258 162.948 13.6131 162.839 13.8967L157.264 28.3705C157.203 28.5285 156.978 28.5271 156.919 28.3683L151.555 13.9053C151.448 13.6172 151.172 13.4258 150.864 13.4258H147.787C147.265 13.4258 146.909 13.95 147.103 14.4317L154.581 33.0202C154.653 33.1987 154.652 33.3982 154.577 33.5756L152.98 37.3791C152.777 37.8622 153.134 38.3952 153.66 38.3952H156.407Z" fill="#111111"/>
</svg>
