<svg width="36" height="42" viewBox="0 0 36 42" fill="none" xmlns="http://www.w3.org/2000/svg">
<path fill-rule="evenodd" clip-rule="evenodd" d="M13.1037 0.580619C12.9766 -0.00730193 12.2271 -0.202551 11.8234 0.247076L2.96598 10.1112C1.11419 12.3267 -1.25069e-07 15.1778 0 18.2887C8.80602e-07 25.3432 5.72948 31.062 12.7972 31.062C13.6219 31.062 14.4284 30.9841 15.2097 30.8354C15.5834 30.7642 15.962 30.9622 16.0907 31.3163L19.4801 40.6427C19.7012 41.2511 20.5527 41.2996 20.843 40.7204L23.9348 34.5535C24.1601 34.104 24.7653 34.0059 25.1241 34.3606L32.6353 41.7852C32.925 42.0716 33.3947 42.0716 33.6844 41.7852L35.7827 39.7111C36.0724 39.4247 36.0724 38.9604 35.7827 38.674L28.2715 31.2493C27.9126 30.8946 28.0119 30.2964 28.4666 30.0737L34.7058 27.0174C35.2917 26.7303 35.2426 25.8887 34.6272 25.6702L25.6451 22.4806C25.2686 22.3469 25.0694 21.9427 25.1707 21.5601C25.4471 20.516 25.5943 19.4195 25.5943 18.2887C25.5944 15.2328 24.0218 12.5443 22.9318 10.6807C22.7932 10.4438 22.6624 10.2202 22.5437 10.0109C21.9247 8.9199 21.2391 7.97842 20.7791 7.38772C20.5045 7.03495 19.9805 7.03074 19.6837 7.36559L16.5477 10.904C16.1455 11.3578 15.3918 11.1641 15.2642 10.574L13.1037 0.580619ZM24.388 23.0204C24.5471 22.648 24.3447 22.2281 23.9598 22.0914L12.6547 18.077C12.0644 17.8673 11.4937 18.4315 11.7058 19.015L15.6059 29.7464C15.7358 30.1039 16.1214 30.3064 16.4873 30.1904C20.0491 29.0619 22.9355 26.4195 24.388 23.0204Z" fill="#111111"/>
</svg>
